<svg viewBox="0 0 1024 1024" class="icon" version="1.1" xmlns="http://www.w3.org/2000/svg" fill="#ffffff"
     stroke="#ffffff" stroke-width="30.72">
  <g id="SVGRepo_bgCarrier" stroke-width="0"></g>
  <g id="SVGRepo_tracerCarrier" stroke-linecap="round" stroke-linejoin="round"></g>
  <g id="SVGRepo_iconCarrier">
    <path
      d="M175.542857 643.657143c58.514286 131.657143 197.485714 226.742857 351.085714 226.742857 153.6 0 292.571429-95.085714 351.085715-226.742857H175.542857zM877.714286 329.142857c-58.514286-131.657143-197.485714-226.742857-351.085715-226.742857-153.6 0-292.571429 95.085714-351.085714 226.742857H877.714286z"
      fill="#001529"></path>
    <path
      d="M182.857143 329.142857c65.828571-138.971429 197.485714-226.742857 343.771428-226.742857 153.6 0 285.257143 87.771429 343.771429 226.742857h36.571429l21.942857-7.314286C863.085714 153.6 702.171429 51.2 519.314286 51.2 343.771429 51.2 182.857143 160.914286 109.714286 321.828571l21.942857 7.314286h51.2zM877.714286 643.657143c-65.828571 138.971429-197.485714 226.742857-351.085715 226.742857s-285.257143-87.771429-351.085714-226.742857h-21.942857l-29.257143 14.628571c65.828571 160.914286 226.742857 270.628571 409.6 270.628572s336.457143-109.714286 409.6-270.628572l-29.257143-14.628571H877.714286zM212.114286 475.428571c0-73.142857 43.885714-124.342857 102.4-124.342857 29.257143 7.314286 51.2 14.628571 65.828571 29.257143l-14.628571 21.942857c-7.314286-14.628571-29.257143-21.942857-51.2-21.942857-43.885714 0-73.142857 36.571429-73.142857 95.085714s29.257143 102.4 73.142857 102.4c21.942857 0 43.885714-7.314286 58.514285-29.257142l14.628572 14.628571c-14.628571 21.942857-43.885714 36.571429-73.142857 36.571429-58.514286 0-102.4-43.885714-102.4-124.342858zM563.2 599.771429l-58.514286-102.4h-43.885714v102.4h-29.257143V358.4h73.142857c51.2 0 80.457143 14.628571 80.457143 65.828571 0 36.571429-21.942857 58.514286-58.514286 65.828572L585.142857 592.457143h-21.942857zM460.8 475.428571h43.885714c36.571429 0 58.514286-14.628571 58.514286-43.885714 0-29.257143-21.942857-43.885714-58.514286-43.885714h-43.885714v87.771428zM636.342857 358.4h36.571429l43.885714 131.657143c7.314286 14.628571 7.314286 29.257143 14.628571 51.2 7.314286-14.628571 14.628571-36.571429 14.628572-51.2l43.885714-131.657143h36.571429v234.057143H804.571429V460.8v-65.828571l-21.942858 51.2-43.885714 124.342857h-14.628571l-51.2-124.342857-14.628572-58.514286v212.114286h-21.942857V358.4z"
      fill="#001529"></path>
    <path
      d="M182.857143 329.142857c65.828571-138.971429 197.485714-226.742857 343.771428-226.742857 153.6 0 285.257143 87.771429 343.771429 226.742857h36.571429l21.942857-7.314286C863.085714 153.6 702.171429 51.2 519.314286 51.2 343.771429 51.2 182.857143 160.914286 109.714286 321.828571l21.942857 7.314286h51.2zM877.714286 643.657143c-65.828571 138.971429-197.485714 226.742857-351.085715 226.742857s-285.257143-87.771429-351.085714-226.742857h-21.942857l-29.257143 14.628571c65.828571 160.914286 226.742857 270.628571 409.6 270.628572s336.457143-109.714286 409.6-270.628572l-29.257143-14.628571H877.714286z"
      fill="#001529"></path>
    <path
      d="M526.628571 870.4c153.6 0 292.571429-95.085714 351.085715-226.742857H175.542857c65.828571 131.657143 197.485714 226.742857 351.085714 226.742857z"
      fill="#001529"></path>
    <path d="M102.4 321.828571h892.342857V658.285714H102.4z" fill="#001529"></path>
    <path
      d="M212.114286 475.428571c0-73.142857 43.885714-124.342857 102.4-124.342857 29.257143 7.314286 51.2 14.628571 65.828571 29.257143l-14.628571 21.942857c-7.314286-14.628571-29.257143-21.942857-51.2-21.942857-43.885714 0-73.142857 36.571429-73.142857 95.085714s29.257143 102.4 73.142857 102.4c21.942857 0 43.885714-7.314286 58.514285-29.257142l14.628572 14.628571c-14.628571 21.942857-43.885714 36.571429-73.142857 36.571429-58.514286 0-102.4-43.885714-102.4-124.342858zM563.2 599.771429l-58.514286-102.4h-43.885714v102.4h-29.257143V358.4h73.142857c51.2 0 80.457143 14.628571 80.457143 65.828571 0 36.571429-21.942857 58.514286-58.514286 65.828572L585.142857 592.457143h-21.942857zM460.8 475.428571h43.885714c36.571429 0 58.514286-14.628571 58.514286-43.885714 0-29.257143-21.942857-43.885714-58.514286-43.885714h-43.885714v87.771428zM636.342857 358.4h36.571429l43.885714 131.657143c7.314286 14.628571 7.314286 29.257143 14.628571 51.2 7.314286-14.628571 14.628571-36.571429 14.628572-51.2l43.885714-131.657143h36.571429v234.057143H804.571429V460.8v-65.828571l-21.942858 51.2-43.885714 124.342857h-14.628571l-51.2-124.342857-14.628572-58.514286v212.114286h-21.942857V358.4z"
      fill="#001529"></path>
  </g>
</svg>
